<svg width="269" height="48" viewBox="0 0 269 48" fill="none" xmlns="http://www.w3.org/2000/svg">
<path d="M62.96 38.52C60.4667 38.52 58.1667 37.8733 56.06 36.58C53.9533 35.2733 52.28 33.5067 51.04 31.28C49.8133 29.0533 49.2 26.6267 49.2 24C49.2 21.3733 49.8133 18.9467 51.04 16.72C52.28 14.4933 53.9533 12.7333 56.06 11.44C58.1667 10.1333 60.4667 9.48 62.96 9.48C65.1733 9.48 67.2333 10 69.14 11.04C71.06 12.0667 72.6667 13.4733 73.96 15.26L70.4 17.16C69.5067 16.0267 68.4 15.1333 67.08 14.48C65.7733 13.8133 64.4 13.48 62.96 13.48C61.1867 13.48 59.5533 13.96 58.06 14.92C56.5667 15.8667 55.38 17.1467 54.5 18.76C53.6333 20.3733 53.2 22.12 53.2 24C53.2 25.9067 53.64 27.6667 54.52 29.28C55.4 30.88 56.5867 32.1533 58.08 33.1C59.5733 34.0467 61.2 34.52 62.96 34.52C64.4267 34.52 65.8067 34.1867 67.1 33.52C68.4067 32.8533 69.5067 31.9533 70.4 30.82L73.96 32.76C72.6667 34.5467 71.06 35.9533 69.14 36.98C67.2333 38.0067 65.1733 38.52 62.96 38.52ZM85.9062 38.52C84.0929 38.52 82.4196 38.0467 80.8862 37.1C79.3662 36.1533 78.1529 34.88 77.2462 33.28C76.3529 31.6667 75.9062 29.9067 75.9062 28C75.9062 26.08 76.3529 24.3133 77.2462 22.7C78.1529 21.0867 79.3662 19.8067 80.8862 18.86C82.4196 17.9133 84.0929 17.44 85.9062 17.44C87.7196 17.44 89.3863 17.9133 90.9063 18.86C92.4396 19.8067 93.6529 21.0867 94.5463 22.7C95.4529 24.3133 95.9063 26.08 95.9063 28C95.9063 29.9067 95.4529 31.6667 94.5463 33.28C93.6529 34.88 92.4396 36.1533 90.9063 37.1C89.3863 38.0467 87.7196 38.52 85.9062 38.52ZM85.9062 34.52C87.0129 34.52 88.0262 34.2267 88.9462 33.64C89.8662 33.04 90.5862 32.24 91.1063 31.24C91.6396 30.24 91.9062 29.16 91.9062 28C91.9062 26.8267 91.6329 25.74 91.0863 24.74C90.5529 23.7267 89.8263 22.9267 88.9062 22.34C87.9862 21.74 86.9862 21.44 85.9062 21.44C84.7996 21.44 83.7862 21.74 82.8662 22.34C81.9596 22.94 81.2396 23.7467 80.7062 24.76C80.1729 25.76 79.9062 26.84 79.9062 28C79.9062 29.2 80.1796 30.3 80.7262 31.3C81.2729 32.2867 81.9996 33.0733 82.9062 33.66C83.8262 34.2333 84.8262 34.52 85.9062 34.52ZM102.797 18V20.3C103.464 19.4333 104.164 18.7933 104.897 18.38C105.631 17.9533 106.484 17.74 107.457 17.74C108.911 17.74 110.211 18.0733 111.357 18.74C112.517 19.3933 113.491 20.3333 114.277 21.56C115.064 20.3333 116.031 19.3933 117.178 18.74C118.338 18.0733 119.637 17.74 121.077 17.74C122.744 17.74 124.237 18.1667 125.558 19.02C126.878 19.8733 127.904 21.02 128.637 22.46C129.371 23.9 129.738 25.48 129.738 27.2V38H125.737V27.2C125.737 26.1867 125.544 25.2667 125.157 24.44C124.771 23.6133 124.224 22.96 123.518 22.48C122.811 21.9867 121.997 21.74 121.077 21.74C120.157 21.74 119.331 21.9867 118.597 22.48C117.864 22.96 117.291 23.62 116.877 24.46C116.477 25.2867 116.277 26.2 116.277 27.2V38H112.277V27.2C112.277 26.2 112.071 25.2867 111.657 24.46C111.244 23.62 110.671 22.96 109.937 22.48C109.204 21.9867 108.377 21.74 107.457 21.74C106.591 21.74 105.797 22 105.077 22.52C104.371 23.0267 103.811 23.7133 103.397 24.58C102.997 25.4467 102.797 26.38 102.797 27.38V38H98.7975V18H102.797ZM134.23 18H138.23V21.04C138.923 19.9333 139.803 19.0667 140.87 18.44C141.95 17.8 143.183 17.48 144.57 17.48C146.476 17.48 148.236 17.9533 149.85 18.9C151.463 19.8467 152.736 21.1267 153.67 22.74C154.616 24.34 155.09 26.0933 155.09 28C155.09 29.92 154.616 31.6867 153.67 33.3C152.736 34.9133 151.463 36.1933 149.85 37.14C148.236 38.0867 146.476 38.56 144.57 38.56C143.183 38.56 141.95 38.2467 140.87 37.62C139.803 36.98 138.923 36.1067 138.23 35V48H134.23V18ZM144.53 21.34C143.383 21.34 142.356 21.64 141.45 22.24C140.543 22.8267 139.836 23.6267 139.33 24.64C138.823 25.6533 138.57 26.7733 138.57 28C138.57 29.2267 138.816 30.3533 139.31 31.38C139.816 32.3933 140.523 33.2 141.43 33.8C142.336 34.3867 143.37 34.68 144.53 34.68C145.69 34.68 146.763 34.3867 147.75 33.8C148.75 33.2 149.543 32.3933 150.13 31.38C150.73 30.3533 151.03 29.2267 151.03 28C151.03 26.8 150.736 25.6933 150.15 24.68C149.576 23.6533 148.79 22.84 147.79 22.24C146.79 21.64 145.703 21.34 144.53 21.34ZM167.783 38.52C165.969 38.52 164.296 38.0467 162.763 37.1C161.243 36.1533 160.029 34.88 159.123 33.28C158.229 31.6667 157.783 29.9067 157.783 28C157.783 26.08 158.229 24.3133 159.123 22.7C160.029 21.0867 161.243 19.8067 162.763 18.86C164.296 17.9133 165.969 17.44 167.783 17.44C169.596 17.44 171.263 17.9133 172.783 18.86C174.316 19.8067 175.529 21.0867 176.423 22.7C177.329 24.3133 177.783 26.08 177.783 28C177.783 29.9067 177.329 31.6667 176.423 33.28C175.529 34.88 174.316 36.1533 172.783 37.1C171.263 38.0467 169.596 38.52 167.783 38.52ZM167.783 34.52C168.889 34.52 169.903 34.2267 170.823 33.64C171.743 33.04 172.463 32.24 172.983 31.24C173.516 30.24 173.783 29.16 173.783 28C173.783 26.8267 173.509 25.74 172.963 24.74C172.429 23.7267 171.703 22.9267 170.783 22.34C169.863 21.74 168.863 21.44 167.783 21.44C166.676 21.44 165.663 21.74 164.743 22.34C163.836 22.94 163.116 23.7467 162.583 24.76C162.049 25.76 161.783 26.84 161.783 28C161.783 29.2 162.056 30.3 162.603 31.3C163.149 32.2867 163.876 33.0733 164.783 33.66C165.703 34.2333 166.703 34.52 167.783 34.52ZM195.754 38V27.56C195.754 26.4267 195.514 25.38 195.034 24.42C194.554 23.46 193.887 22.7 193.034 22.14C192.194 21.58 191.254 21.3 190.214 21.3C189.187 21.3 188.267 21.58 187.454 22.14C186.654 22.7 186.027 23.46 185.574 24.42C185.134 25.3667 184.914 26.4133 184.914 27.56V38H180.914V18H184.914V20.78C185.634 19.7267 186.494 18.9067 187.494 18.32C188.507 17.7333 189.621 17.44 190.834 17.44C192.567 17.44 194.107 17.8933 195.454 18.8C196.801 19.6933 197.847 20.9067 198.594 22.44C199.341 23.9733 199.727 25.6533 199.754 27.48V38H195.754ZM212.641 38.52C210.827 38.52 209.154 38.0467 207.621 37.1C206.101 36.1533 204.887 34.8733 203.981 33.26C203.087 31.6467 202.641 29.8867 202.641 27.98C202.641 26.0733 203.087 24.3133 203.981 22.7C204.887 21.0867 206.101 19.8067 207.621 18.86C209.154 17.9133 210.827 17.44 212.641 17.44C214.507 17.44 216.194 17.92 217.701 18.88C219.221 19.84 220.414 21.14 221.281 22.78C222.147 24.4067 222.581 26.2 222.581 28.16C222.581 28.56 222.561 28.9733 222.521 29.4H206.921C207.094 30.3733 207.441 31.2467 207.961 32.02C208.481 32.7933 209.147 33.4067 209.961 33.86C210.774 34.3 211.667 34.52 212.641 34.52C213.681 34.5333 214.627 34.28 215.481 33.76C216.347 33.2267 217.061 32.4867 217.621 31.54L221.701 32.48C221.154 33.6667 220.421 34.72 219.501 35.64C218.594 36.5467 217.547 37.2533 216.361 37.76C215.187 38.2667 213.947 38.52 212.641 38.52ZM218.481 26.34C218.347 25.3667 218.001 24.4733 217.441 23.66C216.894 22.8333 216.201 22.18 215.361 21.7C214.521 21.22 213.614 20.98 212.641 20.98C211.667 20.98 210.761 21.22 209.921 21.7C209.094 22.1667 208.401 22.8067 207.841 23.62C207.294 24.4333 206.947 25.34 206.801 26.34H218.481ZM240.612 38V27.56C240.612 26.4267 240.372 25.38 239.892 24.42C239.412 23.46 238.745 22.7 237.892 22.14C237.052 21.58 236.112 21.3 235.072 21.3C234.045 21.3 233.125 21.58 232.312 22.14C231.512 22.7 230.885 23.46 230.432 24.42C229.992 25.3667 229.772 26.4133 229.772 27.56V38H225.772V18H229.772V20.78C230.492 19.7267 231.352 18.9067 232.352 18.32C233.365 17.7333 234.479 17.44 235.692 17.44C237.425 17.44 238.965 17.8933 240.312 18.8C241.659 19.6933 242.705 20.9067 243.452 22.44C244.199 23.9733 244.585 25.6533 244.612 27.48V38H240.612ZM255.583 22.58L255.563 38H251.563L251.583 22.58H248.343V18.58H251.583L251.563 11.72H255.563L255.583 18.58H259.843V22.58H255.583Z" fill="#363636"/>
<path d="M262 32.1333C262 31.5074 262.507 31 263.133 31H267.867C268.493 31 269 31.5074 269 32.1333V36.8667C269 37.4926 268.493 38 267.867 38H263.133C262.507 38 262 37.4926 262 36.8667V32.1333Z" fill="#FF1D36"/>
<path d="M0 5.89097C0 4.84668 0.846562 4.00012 1.89085 4.00012H9.78795C10.8322 4.00012 11.6788 4.84668 11.6788 5.89097V13.7881C11.6788 14.8324 10.8322 15.6789 9.78794 15.6789H1.89085C0.846561 15.6789 0 14.8324 0 13.7881V5.89097Z" fill="#01B26F"/>
<path d="M0 20.0515C0 19.0072 0.846562 18.1606 1.89085 18.1606H9.78795C10.8322 18.1606 11.6788 19.0072 11.6788 20.0515V27.9486C11.6788 28.9929 10.8322 29.8394 9.78794 29.8394H1.89085C0.846561 29.8394 0 28.9929 0 27.9486V20.0515Z" fill="#FF1D36"/>
<path d="M0 34.2121C0 33.1678 0.846562 32.3212 1.89085 32.3212H9.78795C10.8322 32.3212 11.6788 33.1678 11.6788 34.2121V42.1092C11.6788 43.1535 10.8322 44 9.78794 44H1.89085C0.846561 44 0 43.1535 0 42.1092V34.2121Z" fill="#0850D1"/>
<path d="M28.3203 5.89085C28.3203 4.84656 29.1669 4 30.2112 4H38.1083C39.1525 4 39.9991 4.84656 39.9991 5.89085V13.7879C39.9991 14.8322 39.1525 15.6788 38.1083 15.6788H30.2112C29.1669 15.6788 28.3203 14.8322 28.3203 13.7879V5.89085Z" fill="#0850D1"/>
<path d="M28.3203 20.0515C28.3203 19.0072 29.1669 18.1606 30.2112 18.1606H38.1083C39.1525 18.1606 39.9991 19.0072 39.9991 20.0515V27.9486C39.9991 28.9929 39.1525 29.8394 38.1083 29.8394H30.2112C29.1669 29.8394 28.3203 28.9929 28.3203 27.9486V20.0515Z" fill="#F1DC00"/>
<path d="M14.1602 20.0515C14.1602 19.0072 15.0067 18.1606 16.051 18.1606H23.9481C24.9924 18.1606 25.8389 19.0072 25.8389 20.0515V27.9486C25.8389 28.9929 24.9924 29.8394 23.9481 29.8394H16.051C15.0067 29.8394 14.1602 28.9929 14.1602 27.9486V20.0515Z" fill="#01B26F"/>
<path d="M14.1602 5.89085C14.1602 4.84656 15.0067 4 16.051 4H23.9481C24.9924 4 25.839 4.84656 25.839 5.89085V13.7879C25.839 14.8322 24.9924 15.6788 23.9481 15.6788H16.051C15.0067 15.6788 14.1602 14.8322 14.1602 13.7879V5.89085Z" fill="#FF1D36"/>
<path d="M28.3203 34.2121C28.3203 33.1678 29.1669 32.3212 30.2112 32.3212H38.1083C39.1525 32.3212 39.9991 33.1678 39.9991 34.2121V42.1092C39.9991 43.1535 39.1525 44 38.1083 44H30.2112C29.1669 44 28.3203 43.1535 28.3203 42.1092V34.2121Z" fill="#FF9433"/>
<path d="M14.1602 34.2121C14.1602 33.1678 15.0067 32.3212 16.051 32.3212H23.9481C24.9924 32.3212 25.8389 33.1678 25.8389 34.2121V42.1092C25.8389 43.1535 24.9924 44 23.9481 44H16.051C15.0067 44 14.1602 43.1535 14.1602 42.1092V34.2121Z" fill="#F1DC00"/>
</svg>
