<svg width="269" height="48" viewBox="0 0 269 48" fill="none" xmlns="http://www.w3.org/2000/svg">
<path d="M62.96 38.52C61.0667 38.52 59.2867 38.1467 57.62 37.4C55.9533 36.64 54.4867 35.6 53.22 34.28C51.9667 32.9467 50.98 31.4 50.26 29.64C49.5533 27.88 49.2 26 49.2 24C49.2 22 49.5533 20.12 50.26 18.36C50.98 16.6 51.9667 15.06 53.22 13.74C54.4867 12.4067 55.9533 11.3667 57.62 10.62C59.2867 9.86 61.0667 9.48 62.96 9.48C65.2267 9.48 67.3133 10.0067 69.22 11.06C71.1267 12.1133 72.7067 13.5133 73.96 15.26L70.26 17.24C69.3933 16.1467 68.32 15.2733 67.04 14.62C65.76 13.9667 64.4 13.64 62.96 13.64C61.6267 13.64 60.38 13.9133 59.22 14.46C58.06 15.0067 57.04 15.7533 56.16 16.7C55.28 17.6467 54.5933 18.7467 54.1 20C53.6067 21.2533 53.36 22.5867 53.36 24C53.36 25.4267 53.6067 26.7667 54.1 28.02C54.5933 29.26 55.28 30.36 56.16 31.32C57.0533 32.2667 58.08 33.0133 59.24 33.56C60.4 34.0933 61.64 34.36 62.96 34.36C64.4267 34.36 65.7933 34.0333 67.06 33.38C68.34 32.7133 69.4067 31.8333 70.26 30.74L73.96 32.76C72.7067 34.5067 71.1267 35.9067 69.22 36.96C67.3133 38 65.2267 38.52 62.96 38.52ZM85.9062 38.52C84.0662 38.52 82.3862 38.0467 80.8662 37.1C79.3596 36.1533 78.1529 34.8867 77.2462 33.3C76.3529 31.7 75.9062 29.9333 75.9062 28C75.9062 26.5333 76.1662 25.1667 76.6862 23.9C77.2062 22.62 77.9196 21.5 78.8262 20.54C79.7462 19.5667 80.8129 18.8067 82.0262 18.26C83.2396 17.7133 84.5329 17.44 85.9062 17.44C87.7462 17.44 89.4196 17.9133 90.9263 18.86C92.4463 19.8067 93.6529 21.08 94.5463 22.68C95.4529 24.28 95.9063 26.0533 95.9063 28C95.9063 29.4533 95.6463 30.8133 95.1262 32.08C94.6063 33.3467 93.8863 34.4667 92.9663 35.44C92.0596 36.4 90.9996 37.1533 89.7862 37.7C88.5862 38.2467 87.2929 38.52 85.9062 38.52ZM85.9062 34.36C87.0129 34.36 88.0062 34.0667 88.8863 33.48C89.7663 32.8933 90.4596 32.12 90.9662 31.16C91.4863 30.1867 91.7463 29.1333 91.7463 28C91.7463 26.84 91.4796 25.7733 90.9462 24.8C90.4263 23.8267 89.7263 23.0533 88.8462 22.48C87.9662 21.8933 86.9862 21.6 85.9062 21.6C84.8129 21.6 83.8196 21.8933 82.9262 22.48C82.0462 23.0667 81.3462 23.8467 80.8262 24.82C80.3196 25.7933 80.0662 26.8533 80.0662 28C80.0662 29.1867 80.3329 30.26 80.8662 31.22C81.3996 32.18 82.1062 32.9467 82.9862 33.52C83.8796 34.08 84.8529 34.36 85.9062 34.36ZM98.7775 38V18H102.937V20.42C103.577 19.6333 104.251 18.9933 104.957 18.5C105.677 17.9933 106.531 17.74 107.517 17.74C108.984 17.74 110.284 18.0733 111.417 18.74C112.564 19.3933 113.524 20.3067 114.297 21.48C115.071 20.2933 116.031 19.3733 117.178 18.72C118.338 18.0667 119.631 17.74 121.058 17.74C122.777 17.74 124.291 18.1733 125.598 19.04C126.904 19.9067 127.931 21.06 128.677 22.5C129.424 23.9267 129.798 25.5 129.798 27.22V38H125.637V27.22C125.637 26.2333 125.444 25.34 125.057 24.54C124.684 23.74 124.157 23.1 123.477 22.62C122.797 22.14 121.991 21.9 121.058 21.9C120.151 21.9 119.337 22.14 118.617 22.62C117.911 23.1 117.357 23.74 116.957 24.54C116.571 25.34 116.377 26.2333 116.377 27.22V38H112.217V27.22C112.217 26.2333 112.017 25.34 111.617 24.54C111.217 23.74 110.664 23.1 109.957 22.62C109.251 22.14 108.437 21.9 107.517 21.9C106.637 21.9 105.851 22.1533 105.157 22.66C104.477 23.1667 103.937 23.8333 103.537 24.66C103.137 25.4867 102.937 26.3933 102.937 27.38V38H98.7775ZM138.39 48H134.23V18H138.39V20.94C139.056 19.9133 139.91 19.08 140.95 18.44C141.99 17.8 143.216 17.48 144.63 17.48C146.083 17.48 147.443 17.7533 148.71 18.3C149.99 18.8467 151.11 19.6067 152.07 20.58C153.03 21.54 153.783 22.6533 154.33 23.92C154.876 25.1867 155.15 26.5467 155.15 28C155.15 29.4533 154.876 30.82 154.33 32.1C153.783 33.38 153.03 34.5067 152.07 35.48C151.11 36.44 149.99 37.1933 148.71 37.74C147.443 38.2867 146.083 38.56 144.63 38.56C143.216 38.56 141.99 38.24 140.95 37.6C139.91 36.9467 139.056 36.1133 138.39 35.1V48ZM144.59 21.5C143.43 21.5 142.41 21.7933 141.53 22.38C140.65 22.9667 139.963 23.7533 139.47 24.74C138.976 25.7133 138.73 26.8 138.73 28C138.73 29.2 138.976 30.2933 139.47 31.28C139.963 32.2667 140.65 33.0533 141.53 33.64C142.41 34.2267 143.43 34.52 144.59 34.52C145.736 34.52 146.79 34.2333 147.75 33.66C148.71 33.0733 149.476 32.2867 150.05 31.3C150.623 30.3133 150.91 29.2133 150.91 28C150.91 26.8133 150.623 25.7267 150.05 24.74C149.49 23.7533 148.73 22.9667 147.77 22.38C146.81 21.7933 145.75 21.5 144.59 21.5ZM167.861 38.52C166.021 38.52 164.341 38.0467 162.821 37.1C161.314 36.1533 160.108 34.8867 159.201 33.3C158.308 31.7 157.861 29.9333 157.861 28C157.861 26.5333 158.121 25.1667 158.641 23.9C159.161 22.62 159.874 21.5 160.781 20.54C161.701 19.5667 162.768 18.8067 163.981 18.26C165.194 17.7133 166.488 17.44 167.861 17.44C169.701 17.44 171.374 17.9133 172.881 18.86C174.401 19.8067 175.608 21.08 176.501 22.68C177.408 24.28 177.861 26.0533 177.861 28C177.861 29.4533 177.601 30.8133 177.081 32.08C176.561 33.3467 175.841 34.4667 174.921 35.44C174.014 36.4 172.954 37.1533 171.741 37.7C170.541 38.2467 169.248 38.52 167.861 38.52ZM167.861 34.36C168.968 34.36 169.961 34.0667 170.841 33.48C171.721 32.8933 172.414 32.12 172.921 31.16C173.441 30.1867 173.701 29.1333 173.701 28C173.701 26.84 173.434 25.7733 172.901 24.8C172.381 23.8267 171.681 23.0533 170.801 22.48C169.921 21.8933 168.941 21.6 167.861 21.6C166.768 21.6 165.774 21.8933 164.881 22.48C164.001 23.0667 163.301 23.8467 162.781 24.82C162.274 25.7933 162.021 26.8533 162.021 28C162.021 29.1867 162.288 30.26 162.821 31.22C163.354 32.18 164.061 32.9467 164.941 33.52C165.834 34.08 166.808 34.36 167.861 34.36ZM199.952 27.52V38H195.792V27.6C195.792 26.4667 195.552 25.44 195.072 24.52C194.606 23.5867 193.959 22.8467 193.132 22.3C192.319 21.74 191.392 21.46 190.352 21.46C189.312 21.46 188.399 21.74 187.612 22.3C186.839 22.8467 186.232 23.5867 185.792 24.52C185.366 25.44 185.152 26.4667 185.152 27.6V38H180.992V18H185.152V20.7C185.846 19.6867 186.686 18.8933 187.672 18.32C188.659 17.7333 189.772 17.44 191.012 17.44C192.812 17.44 194.372 17.9 195.692 18.82C197.026 19.74 198.066 20.96 198.812 22.48C199.559 24 199.939 25.68 199.952 27.52ZM212.797 38.52C210.957 38.52 209.277 38.0467 207.757 37.1C206.25 36.1533 205.044 34.8867 204.137 33.3C203.244 31.7 202.797 29.9333 202.797 28C202.797 26.5333 203.057 25.1667 203.577 23.9C204.097 22.62 204.81 21.5 205.717 20.54C206.637 19.5667 207.704 18.8067 208.917 18.26C210.13 17.7133 211.424 17.44 212.797 17.44C214.33 17.44 215.737 17.76 217.017 18.4C218.297 19.0267 219.39 19.9 220.297 21.02C221.204 22.1267 221.87 23.4067 222.297 24.86C222.724 26.3 222.85 27.8333 222.677 29.46H207.257C207.43 30.38 207.764 31.2133 208.257 31.96C208.764 32.6933 209.404 33.2733 210.177 33.7C210.964 34.1267 211.837 34.3467 212.797 34.36C213.81 34.36 214.73 34.1067 215.557 33.6C216.397 33.0933 217.084 32.3933 217.617 31.5L221.837 32.48C221.037 34.2533 219.83 35.7067 218.217 36.84C216.604 37.96 214.797 38.52 212.797 38.52ZM207.117 26.28H218.477C218.344 25.32 218.004 24.4533 217.457 23.68C216.924 22.8933 216.25 22.2733 215.437 21.82C214.637 21.3533 213.757 21.12 212.797 21.12C211.85 21.12 210.97 21.3467 210.157 21.8C209.357 22.2533 208.69 22.8733 208.157 23.66C207.637 24.4333 207.29 25.3067 207.117 26.28ZM244.888 27.52V38H240.728V27.6C240.728 26.4667 240.488 25.44 240.008 24.52C239.541 23.5867 238.895 22.8467 238.068 22.3C237.255 21.74 236.328 21.46 235.288 21.46C234.248 21.46 233.335 21.74 232.548 22.3C231.775 22.8467 231.168 23.5867 230.728 24.52C230.301 25.44 230.088 26.4667 230.088 27.6V38H225.928V18H230.088V20.7C230.781 19.6867 231.621 18.8933 232.608 18.32C233.595 17.7333 234.708 17.44 235.948 17.44C237.748 17.44 239.308 17.9 240.628 18.82C241.961 19.74 243.001 20.96 243.748 22.48C244.495 24 244.875 25.68 244.888 27.52ZM260.157 22.16H255.957L255.937 38H251.777L251.797 22.16H248.617V18H251.797L251.777 11.72H255.937L255.957 18H260.157V22.16Z" fill="#363636"/>
<path d="M262 32.1333C262 31.5074 262.507 31 263.133 31H267.867C268.493 31 269 31.5074 269 32.1333V36.8667C269 37.4926 268.493 38 267.867 38H263.133C262.507 38 262 37.4926 262 36.8667V32.1333Z" fill="#0850D1"/>
<path d="M0 5.89097C0 4.84668 0.846562 4.00012 1.89085 4.00012H9.78795C10.8322 4.00012 11.6788 4.84668 11.6788 5.89097V13.7881C11.6788 14.8324 10.8322 15.6789 9.78794 15.6789H1.89085C0.846561 15.6789 0 14.8324 0 13.7881V5.89097Z" fill="#01B26F"/>
<path d="M0 20.0515C0 19.0072 0.846562 18.1606 1.89085 18.1606H9.78795C10.8322 18.1606 11.6788 19.0072 11.6788 20.0515V27.9486C11.6788 28.9929 10.8322 29.8394 9.78794 29.8394H1.89085C0.846561 29.8394 0 28.9929 0 27.9486V20.0515Z" fill="#FF1D36"/>
<path d="M14.1602 34.2121C14.1602 33.1678 15.0067 32.3212 16.051 32.3212H23.9481C24.9924 32.3212 25.8389 33.1678 25.8389 34.2121V42.1092C25.8389 43.1535 24.9924 44 23.9481 44H16.051C15.0067 44 14.1602 43.1535 14.1602 42.1092V34.2121Z" fill="#0850D1"/>
<path d="M28.3203 5.89085C28.3203 4.84656 29.1669 4 30.2112 4H38.1083C39.1525 4 39.9991 4.84656 39.9991 5.89085V13.7879C39.9991 14.8322 39.1525 15.6788 38.1083 15.6788H30.2112C29.1669 15.6788 28.3203 14.8322 28.3203 13.7879V5.89085Z" fill="#0850D1"/>
<path d="M28.3203 20.0515C28.3203 19.0072 29.1669 18.1606 30.2112 18.1606H38.1083C39.1525 18.1606 39.9991 19.0072 39.9991 20.0515V27.9486C39.9991 28.9929 39.1525 29.8394 38.1083 29.8394H30.2112C29.1669 29.8394 28.3203 28.9929 28.3203 27.9486V20.0515Z" fill="#F1DC00"/>
<path d="M14.1602 20.0515C14.1602 19.0072 15.0067 18.1606 16.051 18.1606H23.9481C24.9924 18.1606 25.8389 19.0072 25.8389 20.0515V27.9486C25.8389 28.9929 24.9924 29.8394 23.9481 29.8394H16.051C15.0067 29.8394 14.1602 28.9929 14.1602 27.9486V20.0515Z" fill="#01B26F"/>
<path d="M14.1602 5.89085C14.1602 4.84656 15.0067 4 16.051 4H23.9481C24.9924 4 25.839 4.84656 25.839 5.89085V13.7879C25.839 14.8322 24.9924 15.6788 23.9481 15.6788H16.051C15.0067 15.6788 14.1602 14.8322 14.1602 13.7879V5.89085Z" fill="#FF1D36"/>
<path d="M28.3203 34.2121C28.3203 33.1678 29.1669 32.3212 30.2112 32.3212H38.1083C39.1525 32.3212 39.9991 33.1678 39.9991 34.2121V42.1092C39.9991 43.1535 39.1525 44 38.1083 44H30.2112C29.1669 44 28.3203 43.1535 28.3203 42.1092V34.2121Z" fill="#FF9433"/>
<path d="M0 34.2121C0 33.1678 0.846562 32.3212 1.89085 32.3212H9.78795C10.8322 32.3212 11.6788 33.1678 11.6788 34.2121V42.1092C11.6788 43.1535 10.8322 44 9.78794 44H1.89085C0.846561 44 0 43.1535 0 42.1092V34.2121Z" fill="#F1DC00"/>
</svg>
