<svg width="261" height="48" viewBox="0 0 261 48" fill="none" xmlns="http://www.w3.org/2000/svg">
<path d="M57.6225 38.52C55.7292 38.52 53.9492 38.1467 52.2825 37.4C50.6158 36.64 49.1492 35.6 47.8825 34.28C46.6292 32.9467 45.6425 31.4 44.9225 29.64C44.2158 27.88 43.8625 26 43.8625 24C43.8625 22 44.2158 20.12 44.9225 18.36C45.6425 16.6 46.6292 15.06 47.8825 13.74C49.1492 12.4067 50.6158 11.3667 52.2825 10.62C53.9492 9.86 55.7292 9.48 57.6225 9.48C59.8892 9.48 61.9758 10.0067 63.8825 11.06C65.7892 12.1133 67.3692 13.5133 68.6225 15.26L64.9225 17.24C64.0558 16.1467 62.9825 15.2733 61.7025 14.62C60.4225 13.9667 59.0625 13.64 57.6225 13.64C56.2892 13.64 55.0425 13.9133 53.8825 14.46C52.7225 15.0067 51.7025 15.7533 50.8225 16.7C49.9425 17.6467 49.2558 18.7467 48.7625 20C48.2692 21.2533 48.0225 22.5867 48.0225 24C48.0225 25.4267 48.2692 26.7667 48.7625 28.02C49.2558 29.26 49.9425 30.36 50.8225 31.32C51.7158 32.2667 52.7425 33.0133 53.9025 33.56C55.0625 34.0933 56.3025 34.36 57.6225 34.36C59.0892 34.36 60.4558 34.0333 61.7225 33.38C63.0025 32.7133 64.0692 31.8333 64.9225 30.74L68.6225 32.76C67.3692 34.5067 65.7892 35.9067 63.8825 36.96C61.9758 38 59.8892 38.52 57.6225 38.52ZM80.5688 38.52C78.7288 38.52 77.0488 38.0467 75.5288 37.1C74.0221 36.1533 72.8154 34.8867 71.9088 33.3C71.0154 31.7 70.5688 29.9333 70.5688 28C70.5688 26.5333 70.8288 25.1667 71.3488 23.9C71.8688 22.62 72.5821 21.5 73.4888 20.54C74.4088 19.5667 75.4754 18.8067 76.6888 18.26C77.9021 17.7133 79.1954 17.44 80.5688 17.44C82.4088 17.44 84.0821 17.9133 85.5888 18.86C87.1088 19.8067 88.3154 21.08 89.2088 22.68C90.1154 24.28 90.5688 26.0533 90.5688 28C90.5688 29.4533 90.3088 30.8133 89.7888 32.08C89.2688 33.3467 88.5488 34.4667 87.6288 35.44C86.7221 36.4 85.6621 37.1533 84.4488 37.7C83.2488 38.2467 81.9554 38.52 80.5688 38.52ZM80.5688 34.36C81.6754 34.36 82.6688 34.0667 83.5488 33.48C84.4288 32.8933 85.1221 32.12 85.6288 31.16C86.1488 30.1867 86.4088 29.1333 86.4088 28C86.4088 26.84 86.1421 25.7733 85.6088 24.8C85.0888 23.8267 84.3888 23.0533 83.5088 22.48C82.6288 21.8933 81.6488 21.6 80.5688 21.6C79.4754 21.6 78.4821 21.8933 77.5888 22.48C76.7088 23.0667 76.0088 23.8467 75.4888 24.82C74.9821 25.7933 74.7288 26.8533 74.7288 28C74.7288 29.1867 74.9954 30.26 75.5288 31.22C76.0621 32.18 76.7688 32.9467 77.6488 33.52C78.5421 34.08 79.5154 34.36 80.5688 34.36ZM93.44 38V18H97.6V20.42C98.24 19.6333 98.9133 18.9933 99.62 18.5C100.34 17.9933 101.193 17.74 102.18 17.74C103.647 17.74 104.947 18.0733 106.08 18.74C107.227 19.3933 108.187 20.3067 108.96 21.48C109.733 20.2933 110.693 19.3733 111.84 18.72C113 18.0667 114.293 17.74 115.72 17.74C117.44 17.74 118.953 18.1733 120.26 19.04C121.567 19.9067 122.593 21.06 123.34 22.5C124.087 23.9267 124.46 25.5 124.46 27.22V38H120.3V27.22C120.3 26.2333 120.107 25.34 119.72 24.54C119.347 23.74 118.82 23.1 118.14 22.62C117.46 22.14 116.653 21.9 115.72 21.9C114.813 21.9 114 22.14 113.28 22.62C112.573 23.1 112.02 23.74 111.62 24.54C111.233 25.34 111.04 26.2333 111.04 27.22V38H106.88V27.22C106.88 26.2333 106.68 25.34 106.28 24.54C105.88 23.74 105.327 23.1 104.62 22.62C103.913 22.14 103.1 21.9 102.18 21.9C101.3 21.9 100.513 22.1533 99.82 22.66C99.14 23.1667 98.6 23.8333 98.2 24.66C97.8 25.4867 97.6 26.3933 97.6 27.38V38H93.44ZM133.052 48H128.892V18H133.052V20.94C133.719 19.9133 134.572 19.08 135.612 18.44C136.652 17.8 137.879 17.48 139.292 17.48C140.746 17.48 142.106 17.7533 143.372 18.3C144.652 18.8467 145.772 19.6067 146.732 20.58C147.692 21.54 148.446 22.6533 148.992 23.92C149.539 25.1867 149.812 26.5467 149.812 28C149.812 29.4533 149.539 30.82 148.992 32.1C148.446 33.38 147.692 34.5067 146.732 35.48C145.772 36.44 144.652 37.1933 143.372 37.74C142.106 38.2867 140.746 38.56 139.292 38.56C137.879 38.56 136.652 38.24 135.612 37.6C134.572 36.9467 133.719 36.1133 133.052 35.1V48ZM139.252 21.5C138.092 21.5 137.072 21.7933 136.192 22.38C135.312 22.9667 134.626 23.7533 134.132 24.74C133.639 25.7133 133.392 26.8 133.392 28C133.392 29.2 133.639 30.2933 134.132 31.28C134.626 32.2667 135.312 33.0533 136.192 33.64C137.072 34.2267 138.092 34.52 139.252 34.52C140.399 34.52 141.452 34.2333 142.412 33.66C143.372 33.0733 144.139 32.2867 144.712 31.3C145.286 30.3133 145.572 29.2133 145.572 28C145.572 26.8133 145.286 25.7267 144.712 24.74C144.152 23.7533 143.392 22.9667 142.432 22.38C141.472 21.7933 140.412 21.5 139.252 21.5ZM162.523 38.52C160.683 38.52 159.003 38.0467 157.483 37.1C155.977 36.1533 154.77 34.8867 153.863 33.3C152.97 31.7 152.523 29.9333 152.523 28C152.523 26.5333 152.783 25.1667 153.303 23.9C153.823 22.62 154.537 21.5 155.443 20.54C156.363 19.5667 157.43 18.8067 158.643 18.26C159.857 17.7133 161.15 17.44 162.523 17.44C164.363 17.44 166.037 17.9133 167.543 18.86C169.063 19.8067 170.27 21.08 171.163 22.68C172.07 24.28 172.523 26.0533 172.523 28C172.523 29.4533 172.263 30.8133 171.743 32.08C171.223 33.3467 170.503 34.4667 169.583 35.44C168.677 36.4 167.617 37.1533 166.403 37.7C165.203 38.2467 163.91 38.52 162.523 38.52ZM162.523 34.36C163.63 34.36 164.623 34.0667 165.503 33.48C166.383 32.8933 167.077 32.12 167.583 31.16C168.103 30.1867 168.363 29.1333 168.363 28C168.363 26.84 168.097 25.7733 167.563 24.8C167.043 23.8267 166.343 23.0533 165.463 22.48C164.583 21.8933 163.603 21.6 162.523 21.6C161.43 21.6 160.437 21.8933 159.543 22.48C158.663 23.0667 157.963 23.8467 157.443 24.82C156.937 25.7933 156.683 26.8533 156.683 28C156.683 29.1867 156.95 30.26 157.483 31.22C158.017 32.18 158.723 32.9467 159.603 33.52C160.497 34.08 161.47 34.36 162.523 34.36ZM194.615 27.52V38H190.455V27.6C190.455 26.4667 190.215 25.44 189.735 24.52C189.268 23.5867 188.621 22.8467 187.795 22.3C186.981 21.74 186.055 21.46 185.015 21.46C183.975 21.46 183.061 21.74 182.275 22.3C181.501 22.8467 180.895 23.5867 180.455 24.52C180.028 25.44 179.815 26.4667 179.815 27.6V38H175.655V18H179.815V20.7C180.508 19.6867 181.348 18.8933 182.335 18.32C183.321 17.7333 184.435 17.44 185.675 17.44C187.475 17.44 189.035 17.9 190.355 18.82C191.688 19.74 192.728 20.96 193.475 22.48C194.221 24 194.601 25.68 194.615 27.52ZM207.459 38.52C205.619 38.52 203.939 38.0467 202.419 37.1C200.913 36.1533 199.706 34.8867 198.799 33.3C197.906 31.7 197.459 29.9333 197.459 28C197.459 26.5333 197.719 25.1667 198.239 23.9C198.759 22.62 199.473 21.5 200.379 20.54C201.299 19.5667 202.366 18.8067 203.579 18.26C204.793 17.7133 206.086 17.44 207.459 17.44C208.993 17.44 210.399 17.76 211.679 18.4C212.959 19.0267 214.053 19.9 214.959 21.02C215.866 22.1267 216.533 23.4067 216.959 24.86C217.386 26.3 217.513 27.8333 217.339 29.46H201.919C202.093 30.38 202.426 31.2133 202.919 31.96C203.426 32.6933 204.066 33.2733 204.839 33.7C205.626 34.1267 206.499 34.3467 207.459 34.36C208.473 34.36 209.393 34.1067 210.219 33.6C211.059 33.0933 211.746 32.3933 212.279 31.5L216.499 32.48C215.699 34.2533 214.493 35.7067 212.879 36.84C211.266 37.96 209.459 38.52 207.459 38.52ZM201.779 26.28H213.139C213.006 25.32 212.666 24.4533 212.119 23.68C211.586 22.8933 210.913 22.2733 210.099 21.82C209.299 21.3533 208.419 21.12 207.459 21.12C206.513 21.12 205.633 21.3467 204.819 21.8C204.019 22.2533 203.353 22.8733 202.819 23.66C202.299 24.4333 201.953 25.3067 201.779 26.28ZM239.551 27.52V38H235.391V27.6C235.391 26.4667 235.151 25.44 234.671 24.52C234.204 23.5867 233.557 22.8467 232.731 22.3C231.917 21.74 230.991 21.46 229.951 21.46C228.911 21.46 227.997 21.74 227.211 22.3C226.437 22.8467 225.831 23.5867 225.391 24.52C224.964 25.44 224.751 26.4667 224.751 27.6V38H220.591V18H224.751V20.7C225.444 19.6867 226.284 18.8933 227.271 18.32C228.257 17.7333 229.371 17.44 230.611 17.44C232.411 17.44 233.971 17.9 235.291 18.82C236.624 19.74 237.664 20.96 238.411 22.48C239.157 24 239.537 25.68 239.551 27.52ZM254.819 22.16H250.619L250.599 38H246.439L246.459 22.16H243.279V18H246.459L246.439 11.72H250.599L250.619 18H254.819V22.16Z" fill="#363636"/>
<path d="M0 5.90488C0 4.85291 0.85279 4.00012 1.90476 4.00012H9.85995C10.9119 4.00012 11.7647 4.85291 11.7647 5.90488V13.8601C11.7647 14.912 10.9119 15.7648 9.85995 15.7648H1.90476C0.852789 15.7648 0 14.912 0 13.8601V5.90488Z" fill="#01B26F"/>
<path d="M0 20.0224C0 18.9705 0.85279 18.1177 1.90476 18.1177H9.85995C10.9119 18.1177 11.7647 18.9705 11.7647 20.0224V27.9776C11.7647 29.0296 10.9119 29.8824 9.85995 29.8824H1.90476C0.852789 29.8824 0 29.0296 0 27.9776V20.0224Z" fill="#FF1D36"/>
<path d="M0 34.14C0 33.0881 0.85279 32.2353 1.90476 32.2353H9.85995C10.9119 32.2353 11.7647 33.0881 11.7647 34.1401V42.0952C11.7647 43.1472 10.9119 44 9.85995 44H1.90476C0.852789 44 0 43.1472 0 42.0952V34.14Z" fill="#0850D1"/>
<path d="M14.1172 5.90476C14.1172 4.85279 14.97 4 16.0219 4H23.9771C25.0291 4 25.8819 4.85279 25.8819 5.90476V13.86C25.8819 14.9119 25.0291 15.7647 23.9771 15.7647H16.0219C14.97 15.7647 14.1172 14.9119 14.1172 13.86V5.90476Z" fill="#0850D1"/>
<path d="M14.1172 20.0224C14.1172 18.9705 14.97 18.1177 16.0219 18.1177H23.9771C25.0291 18.1177 25.8819 18.9705 25.8819 20.0224V27.9776C25.8819 29.0296 25.0291 29.8824 23.9771 29.8824H16.0219C14.97 29.8824 14.1172 29.0296 14.1172 27.9776V20.0224Z" fill="#F1DC00"/>
<path d="M14.1172 34.14C14.1172 33.0881 14.97 32.2353 16.0219 32.2353H23.9771C25.0291 32.2353 25.8819 33.0881 25.8819 34.1401V42.0952C25.8819 43.1472 25.0291 44 23.9771 44H16.0219C14.97 44 14.1172 43.1472 14.1172 42.0952V34.14Z" fill="#01B26F"/>
<path d="M28.2363 5.90476C28.2363 4.85279 29.0891 4 30.1411 4H38.0963C39.1483 4 40.001 4.85279 40.001 5.90476V13.86C40.001 14.9119 39.1483 15.7647 38.0963 15.7647H30.1411C29.0891 15.7647 28.2363 14.9119 28.2363 13.86V5.90476Z" fill="#FF1D36"/>
<path d="M28.2363 20.0224C28.2363 18.9705 29.0891 18.1177 30.1411 18.1177H38.0963C39.1483 18.1177 40.001 18.9705 40.001 20.0224V27.9776C40.001 29.0296 39.1483 29.8824 38.0963 29.8824H30.1411C29.0891 29.8824 28.2363 29.0296 28.2363 27.9776V20.0224Z" fill="#FF9433"/>
<path d="M28.2363 34.14C28.2363 33.0881 29.0891 32.2353 30.1411 32.2353H38.0963C39.1483 32.2353 40.001 33.0881 40.001 34.1401V42.0952C40.001 43.1472 39.1483 44 38.0963 44H30.1411C29.0891 44 28.2363 43.1472 28.2363 42.0952V34.14Z" fill="#F1DC00"/>
<path d="M254 32.1333C254 31.5074 254.507 31 255.133 31H259.867C260.493 31 261 31.5074 261 32.1333V36.8667C261 37.4926 260.493 38 259.867 38H255.133C254.507 38 254 37.4926 254 36.8667V32.1333Z" fill="#FF9433"/>
</svg>
