<svg width="41" height="40" viewBox="0 0 41 40" fill="none" xmlns="http://www.w3.org/2000/svg">
<path d="M0 1.90488C0 0.852911 0.85279 0.00012207 1.90476 0.00012207H9.85995C10.9119 0.00012207 11.7647 0.852912 11.7647 1.90488V9.86008C11.7647 10.912 10.9119 11.7648 9.85995 11.7648H1.90476C0.852789 11.7648 0 10.912 0 9.86007V1.90488Z" fill="#01B26F"/>
<path d="M0 16.0224C0 14.9705 0.85279 14.1177 1.90476 14.1177H9.85995C10.9119 14.1177 11.7647 14.9705 11.7647 16.0224V23.9776C11.7647 25.0296 10.9119 25.8824 9.85995 25.8824H1.90476C0.852789 25.8824 0 25.0296 0 23.9776V16.0224Z" fill="#FF1D36"/>
<path d="M0 30.14C0 29.088 0.85279 28.2352 1.90476 28.2352H9.85995C10.9119 28.2352 11.7647 29.088 11.7647 30.14V38.0952C11.7647 39.1472 10.9119 39.9999 9.85995 39.9999H1.90476C0.852789 39.9999 0 39.1472 0 38.0952V30.14Z" fill="#0850D1"/>
<path d="M14.1172 1.90476C14.1172 0.852789 14.97 0 16.0219 0H23.9771C25.0291 0 25.8819 0.85279 25.8819 1.90476V9.85995C25.8819 10.9119 25.0291 11.7647 23.9771 11.7647H16.0219C14.97 11.7647 14.1172 10.9119 14.1172 9.85995V1.90476Z" fill="#0850D1"/>
<path d="M14.1172 16.0224C14.1172 14.9705 14.97 14.1177 16.0219 14.1177H23.9771C25.0291 14.1177 25.8819 14.9705 25.8819 16.0224V23.9776C25.8819 25.0296 25.0291 25.8824 23.9771 25.8824H16.0219C14.97 25.8824 14.1172 25.0296 14.1172 23.9776V16.0224Z" fill="#F1DC00"/>
<path d="M14.1172 30.14C14.1172 29.088 14.97 28.2352 16.0219 28.2352H23.9771C25.0291 28.2352 25.8819 29.088 25.8819 30.14V38.0952C25.8819 39.1472 25.0291 39.9999 23.9771 39.9999H16.0219C14.97 39.9999 14.1172 39.1472 14.1172 38.0952V30.14Z" fill="#01B26F"/>
<path d="M28.2363 1.90476C28.2363 0.852789 29.0891 0 30.1411 0H38.0963C39.1483 0 40.001 0.85279 40.001 1.90476V9.85995C40.001 10.9119 39.1483 11.7647 38.0963 11.7647H30.1411C29.0891 11.7647 28.2363 10.9119 28.2363 9.85995V1.90476Z" fill="#FF1D36"/>
<path d="M28.2363 16.0224C28.2363 14.9705 29.0891 14.1177 30.1411 14.1177H38.0963C39.1483 14.1177 40.001 14.9705 40.001 16.0224V23.9776C40.001 25.0296 39.1483 25.8824 38.0963 25.8824H30.1411C29.0891 25.8824 28.2363 25.0296 28.2363 23.9776V16.0224Z" fill="#FF9433"/>
<path d="M28.2363 30.14C28.2363 29.088 29.0891 28.2352 30.1411 28.2352H38.0963C39.1483 28.2352 40.001 29.088 40.001 30.14V38.0952C40.001 39.1472 39.1483 39.9999 38.0963 39.9999H30.1411C29.0891 39.9999 28.2363 39.1472 28.2363 38.0952V30.14Z" fill="#F1DC00"/>
</svg>
